<svg width="2907" height="664" xmlns="http://www.w3.org/2000/svg" xmlns:xlink="http://www.w3.org/1999/xlink" xml:space="preserve" overflow="hidden"><defs><clipPath id="clip0"><rect x="79" y="809" width="2907" height="664"/></clipPath></defs><g clip-path="url(#clip0)" transform="translate(-79 -809)"><path d="M812.5 1018.33C812.5 1011.25 818.246 1005.5 825.334 1005.5L1034.67 1005.5C1041.75 1005.5 1047.5 1011.25 1047.5 1018.33L1047.5 1069.67C1047.5 1076.75 1041.75 1082.5 1034.67 1082.5L825.334 1082.5C818.246 1082.5 812.5 1076.75 812.5 1069.67Z" stroke="#B6D7A8" stroke-width="6.875" stroke-linejoin="round" stroke-miterlimit="10" fill="none" fill-rule="evenodd"/><text fill="#6AA84F" font-family="Arial,Arial_MSFontService,sans-serif" font-weight="700" font-size="28" transform="matrix(1 0 0 1 816.835 1038)">Node Embedding </text><text fill="#6AA84F" font-family="Arial,Arial_MSFontService,sans-serif" font-weight="700" font-size="28" transform="matrix(1 0 0 1 900.481 1071)">MLP</text><path d="M812.5 1324.17C812.5 1317.17 818.171 1311.5 825.167 1311.5L1034.83 1311.5C1041.83 1311.5 1047.5 1317.17 1047.5 1324.17L1047.5 1374.83C1047.5 1381.83 1041.83 1387.5 1034.83 1387.5L825.167 1387.5C818.171 1387.5 812.5 1381.83 812.5 1374.83Z" stroke="#A4C2F4" stroke-width="6.875" stroke-linejoin="round" stroke-miterlimit="10" fill="none" fill-rule="evenodd"/><text fill="#3C78D8" font-family="Arial,Arial_MSFontService,sans-serif" font-weight="700" font-size="28" transform="matrix(1 0 0 1 817.694 1343)">Edge Embedding </text><text fill="#3C78D8" font-family="Arial,Arial_MSFontService,sans-serif" font-weight="700" font-size="28" transform="matrix(1 0 0 1 900.469 1376)">MLP</text><path d="M1141.5 1022.5C1141.5 976.661 1178.66 939.5 1224.5 939.5L1948.5 939.5C1994.34 939.5 2031.5 976.661 2031.5 1022.5L2031.5 1354.5C2031.5 1400.34 1994.34 1437.5 1948.5 1437.5L1224.5 1437.5C1178.66 1437.5 1141.5 1400.34 1141.5 1354.5Z" stroke="#000000" stroke-width="3.4375" stroke-linejoin="round" stroke-miterlimit="10" fill="none" fill-rule="evenodd"/><path d="M2215.5 999.167C2215.5 992.171 2221.17 986.5 2228.17 986.5L2436.83 986.5C2443.83 986.5 2449.5 992.171 2449.5 999.167L2449.5 1049.83C2449.5 1056.83 2443.83 1062.5 2436.83 1062.5L2228.17 1062.5C2221.17 1062.5 2215.5 1056.83 2215.5 1049.83Z" stroke="#E06666" stroke-width="6.875" stroke-linejoin="round" stroke-miterlimit="10" fill="none" fill-rule="evenodd"/><text fill="#E06666" font-family="Arial,Arial_MSFontService,sans-serif" font-weight="700" font-size="28" transform="matrix(1 0 0 1 2256.6 1018)">Differences </text><text fill="#E06666" font-family="Arial,Arial_MSFontService,sans-serif" font-weight="700" font-size="28" transform="matrix(1 0 0 1 2303.01 1051)">MLP</text><path d="M2215.5 1265.33C2215.5 1258.25 2221.25 1252.5 2228.33 1252.5L2436.67 1252.5C2443.75 1252.5 2449.5 1258.25 2449.5 1265.33L2449.5 1316.67C2449.5 1323.75 2443.75 1329.5 2436.67 1329.5L2228.33 1329.5C2221.25 1329.5 2215.5 1323.75 2215.5 1316.67Z" stroke="#F6B26B" stroke-width="6.875" stroke-linejoin="round" stroke-miterlimit="10" fill="none" fill-rule="evenodd"/><text fill="#E69138" font-family="Arial,Arial_MSFontService,sans-serif" font-weight="700" font-size="28" transform="matrix(1 0 0 1 2265.2 1285)">Trajectory </text><text fill="#E69138" font-family="Arial,Arial_MSFontService,sans-serif" font-weight="700" font-size="28" transform="matrix(1 0 0 1 2303.01 1318)">MLP</text><path d="M2215.5 1397.17C2215.5 1390.17 2221.17 1384.5 2228.17 1384.5L2436.83 1384.5C2443.83 1384.5 2449.5 1390.17 2449.5 1397.17L2449.5 1447.83C2449.5 1454.83 2443.83 1460.5 2436.83 1460.5L2228.17 1460.5C2221.17 1460.5 2215.5 1454.83 2215.5 1447.83Z" stroke="#F6B26B" stroke-width="6.875" stroke-linejoin="round" stroke-miterlimit="10" fill="none" fill-rule="evenodd"/><text fill="#E69138" font-family="Arial,Arial_MSFontService,sans-serif" font-weight="700" font-size="28" transform="matrix(1 0 0 1 2259.18 1416)">Affordance </text><text fill="#E69138" font-family="Arial,Arial_MSFontService,sans-serif" font-weight="700" font-size="28" transform="matrix(1 0 0 1 2303.02 1449)">MLP</text><path d="M1528.5 1321.17C1528.5 1314.17 1534.17 1308.5 1541.17 1308.5L1750.83 1308.5C1757.83 1308.5 1763.5 1314.17 1763.5 1321.17L1763.5 1371.83C1763.5 1378.83 1757.83 1384.5 1750.83 1384.5L1541.17 1384.5C1534.17 1384.5 1528.5 1378.83 1528.5 1371.83Z" stroke="#A4C2F4" stroke-width="6.875" stroke-linejoin="round" stroke-miterlimit="10" fill="none" fill-rule="evenodd"/><text fill="#3C78D8" font-family="Arial,Arial_MSFontService,sans-serif" font-weight="700" font-size="37" transform="matrix(1 0 0 1 1575.51 1360)">MLP:   </text><path d="M1528.5 1028.17C1528.5 1021.17 1534.17 1015.5 1541.17 1015.5L1750.83 1015.5C1757.83 1015.5 1763.5 1021.17 1763.5 1028.17L1763.5 1078.83C1763.5 1085.83 1757.83 1091.5 1750.83 1091.5L1541.17 1091.5C1534.17 1091.5 1528.5 1085.83 1528.5 1078.83Z" stroke="#B6D7A8" stroke-width="6.875" stroke-linejoin="round" stroke-miterlimit="10" fill="none" fill-rule="evenodd"/><text fill="#6AA84F" font-family="Arial,Arial_MSFontService,sans-serif" font-weight="700" font-size="37" transform="matrix(1 0 0 1 1575.52 1067)">MLP: </text><path d="M726 1040.54 775.578 1040.54 775.578 1033 808 1043.5 775.578 1054 775.578 1046.46 726 1046.46Z" fill="#6AA84F" fill-rule="evenodd"/><path d="M1056 1040.54 1105.58 1040.54 1105.58 1033 1138 1043.5 1105.58 1054 1105.58 1046.46 1056 1046.46Z" fill="#6AA84F" fill-rule="evenodd"/><path d="M723 1343.54 773.578 1343.54 773.578 1336 806 1346.5 773.578 1357 773.578 1349.46 723 1349.46Z" fill="#3C78D8" fill-rule="evenodd"/><path d="M1056 1343.54 1105.58 1343.54 1105.58 1336 1138 1346.5 1105.58 1357 1105.58 1349.46 1056 1349.46Z" fill="#3C78D8" fill-rule="evenodd"/><path d="M728 1194.54 1108.58 1194.54 1108.58 1187 1141 1197.5 1108.58 1208 1108.58 1200.46 728 1200.46Z" fill="#999999" fill-rule="evenodd"/><path d="M489.5 1094.5 492.132 1112.79" stroke="#3C78D8" stroke-width="6.875" stroke-linejoin="round" stroke-miterlimit="10" fill="none" fill-rule="evenodd"/><path d="M0 0 50.9331 20.1364" stroke="#3C78D8" stroke-width="6.875" stroke-linejoin="round" stroke-miterlimit="10" fill="none" fill-rule="evenodd" transform="matrix(-1 0 0 1 482.433 1129.5)"/><path d="M418.5 1243.5 418.5 1283.77" stroke="#3C78D8" stroke-width="6.875" stroke-linejoin="round" stroke-miterlimit="10" fill="none" fill-rule="evenodd"/><path d="M418.5 1171.5 418.5 1211.77" stroke="#3C78D8" stroke-width="6.875" stroke-linejoin="round" stroke-miterlimit="10" fill="none" fill-rule="evenodd"/><path d="M480.5 1125C480.5 1116.44 486.992 1109.5 495 1109.5 503.008 1109.5 509.5 1116.44 509.5 1125 509.5 1133.56 503.008 1140.5 495 1140.5 486.992 1140.5 480.5 1133.56 480.5 1125Z" stroke="#6AA84F" stroke-width="6.875" stroke-linejoin="round" stroke-miterlimit="10" fill="#B6D7A8" fill-rule="evenodd"/><path d="M403.5 1156C403.5 1147.44 409.992 1140.5 418 1140.5 426.008 1140.5 432.5 1147.44 432.5 1156 432.5 1164.56 426.008 1171.5 418 1171.5 409.992 1171.5 403.5 1164.56 403.5 1156Z" stroke="#6AA84F" stroke-width="6.875" stroke-linejoin="round" stroke-miterlimit="10" fill="#B6D7A8" fill-rule="evenodd"/><path d="M403.5 1227.5C403.5 1218.66 409.992 1211.5 418 1211.5 426.008 1211.5 432.5 1218.66 432.5 1227.5 432.5 1236.34 426.008 1243.5 418 1243.5 409.992 1243.5 403.5 1236.34 403.5 1227.5Z" stroke="#6AA84F" stroke-width="6.875" stroke-linejoin="round" stroke-miterlimit="10" fill="#B6D7A8" fill-rule="evenodd"/><path d="M403.5 1299C403.5 1290.44 409.992 1283.5 418 1283.5 426.008 1283.5 432.5 1290.44 432.5 1299 432.5 1307.56 426.008 1314.5 418 1314.5 409.992 1314.5 403.5 1307.56 403.5 1299Z" stroke="#6AA84F" stroke-width="6.875" stroke-linejoin="round" stroke-miterlimit="10" fill="#B6D7A8" fill-rule="evenodd"/><path d="M474.5 1079C474.5 1070.44 480.768 1063.5 488.5 1063.5 496.232 1063.5 502.5 1070.44 502.5 1079 502.5 1087.56 496.232 1094.5 488.5 1094.5 480.768 1094.5 474.5 1087.56 474.5 1079Z" stroke="#6AA84F" stroke-width="6.875" stroke-linejoin="round" stroke-miterlimit="10" fill="#B6D7A8" fill-rule="evenodd"/><path d="M0 0 22.9001 1.44754" stroke="#3C78D8" stroke-width="6.875" stroke-linejoin="round" stroke-miterlimit="10" fill="none" fill-rule="evenodd" transform="matrix(1 -1.22465e-16 -1.22465e-16 -1 509.5 1123.95)"/><path d="M532.5 1121C532.5 1112.44 538.768 1105.5 546.5 1105.5 554.232 1105.5 560.5 1112.44 560.5 1121 560.5 1129.56 554.232 1136.5 546.5 1136.5 538.768 1136.5 532.5 1129.56 532.5 1121Z" stroke="#6AA84F" stroke-width="6.875" stroke-linejoin="round" stroke-miterlimit="10" fill="#B6D7A8" fill-rule="evenodd"/><path d="M0 0 2.63235 18.294" stroke="#3C78D8" stroke-width="6.875" stroke-linejoin="round" stroke-miterlimit="10" fill="none" fill-rule="evenodd" transform="matrix(-1 0 0 1 346.132 1094.5)"/><path d="M354.5 1129.5 405.433 1149.64" stroke="#3C78D8" stroke-width="6.875" stroke-linejoin="round" stroke-miterlimit="10" fill="none" fill-rule="evenodd"/><path d="M0 15.5C-1.78238e-15 6.93957 6.26798-1.97335e-15 13.9999-3.94671e-15 21.7319-7.89341e-15 27.9998 6.93957 27.9998 15.5 27.9998 24.0604 21.7319 30.9999 13.9999 30.9999 6.26798 30.9999-8.91188e-15 24.0604 0 15.5Z" stroke="#6AA84F" stroke-width="6.875" stroke-linejoin="round" stroke-miterlimit="10" fill="#B6D7A8" fill-rule="evenodd" transform="matrix(-1 0 0 1 355.5 1109.5)"/><path d="M0 15.5C-1.84606e-15 6.93957 6.49192-1.97335e-15 14.5001-3.94671e-15 22.5083-7.89341e-15 29.0002 6.93957 29.0002 15.5 29.0002 24.0604 22.5083 30.9999 14.5001 30.9999 6.49192 30.9999-9.23029e-15 24.0604 0 15.5Z" stroke="#6AA84F" stroke-width="6.875" stroke-linejoin="round" stroke-miterlimit="10" fill="#B6D7A8" fill-rule="evenodd" transform="matrix(-1 0 0 1 362.5 1063.5)"/><path d="M327.4 1123.95 304.5 1122.5" stroke="#3C78D8" stroke-width="6.875" stroke-linejoin="round" stroke-miterlimit="10" fill="none" fill-rule="evenodd"/><path d="M0 15.5C-1.84606e-15 6.93957 6.49192-1.97335e-15 14.5001-3.94671e-15 22.5083-7.89341e-15 29.0002 6.93957 29.0002 15.5 29.0002 24.0604 22.5083 30.9999 14.5001 30.9999 6.49192 30.9999-9.23029e-15 24.0604 0 15.5Z" stroke="#6AA84F" stroke-width="6.875" stroke-linejoin="round" stroke-miterlimit="10" fill="#B6D7A8" fill-rule="evenodd" transform="matrix(-1 0 0 1 304.5 1105.5)"/><path d="M1605.5 1171.33C1605.5 1164.25 1611.25 1158.5 1618.33 1158.5L1674.67 1158.5C1681.75 1158.5 1687.5 1164.25 1687.5 1171.33L1687.5 1222.67C1687.5 1229.75 1681.75 1235.5 1674.67 1235.5L1618.33 1235.5C1611.25 1235.5 1605.5 1229.75 1605.5 1222.67Z" stroke="#93C47D" stroke-width="6.875" stroke-linejoin="round" stroke-miterlimit="10" fill="none" fill-rule="evenodd"/><text fill="#6AA84F" font-family="Arial,Arial_MSFontService,sans-serif" font-weight="700" font-size="50" transform="matrix(1 0 0 1 1630.68 1215)">Î£</text><path d="M2034 1021.54 2183.58 1021.54 2183.58 1014 2216 1024.5 2183.58 1035 2183.58 1027.46 2034 1027.46Z" fill="#E06666" fill-rule="evenodd"/><path d="M2130 1418.89 2179.03 1418.89 2179.03 1411 2213 1422 2179.03 1433 2179.03 1425.11 2130 1425.11Z" fill="#F6B26B" fill-rule="evenodd"/><rect x="2083" y="1351" width="49.9998" height="5.00012" fill="#F6B26B"/><rect x="2130" y="1288" width="5.00024" height="135" fill="#F6B26B"/><path d="M2130 1287.54 2180.58 1287.54 2180.58 1280 2213 1290.5 2180.58 1301 2180.58 1293.46 2130 1293.46Z" fill="#F6B26B" fill-rule="evenodd"/><path d="M2449 1418.89 2498.03 1418.89 2498.03 1411 2532 1422 2498.03 1433 2498.03 1425.11 2449 1425.11Z" fill="#F6B26B" fill-rule="evenodd"/><path d="M2449 1287.54 2499.58 1287.54 2499.58 1280 2532 1290.5 2499.58 1301 2499.58 1293.46 2449 1293.46Z" fill="#F6B26B" fill-rule="evenodd"/><path d="M2449 1020.89 2498.03 1020.89 2498.03 1013 2532 1024 2498.03 1035 2498.03 1027.11 2449 1027.11Z" fill="#E06666" fill-rule="evenodd"/><text font-family="Arial,Arial_MSFontService,sans-serif" font-style="italic" font-weight="400" font-size="41" transform="matrix(1 0 0 1 1386.54 882)">N</text><text font-family="Arial,Arial_MSFontService,sans-serif" font-weight="700" font-size="41" transform="matrix(1 0 0 1 1427.79 882)">graph2graph</text><text font-family="Arial,Arial_MSFontService,sans-serif" font-weight="400" font-size="41" transform="matrix(1 0 0 1 1691.33 882)">layers</text><path d="M1246 1051.54 1493.58 1051.54 1493.58 1044 1526 1054.5 1493.58 1065 1493.58 1057.46 1246 1057.46Z" fill="#6AA84F" fill-rule="evenodd"/><path d="M1254 1343.54 1495.58 1343.54 1495.58 1336 1528 1346.5 1495.58 1357 1495.58 1349.46 1254 1349.46Z" fill="#3C78D8" fill-rule="evenodd"/><path d="M1246.74 1053.51 1508.81 1306.71 1513.93 1301.42 1529.58 1330.81 1499.67 1316.17 1504.78 1310.88 1242.72 1057.67Z" fill="#6AA84F" fill-rule="evenodd"/><path d="M1642.54 1307 1642.54 1267.42 1635 1267.42 1645.5 1235 1656 1267.42 1648.46 1267.42 1648.46 1307Z" fill="#3C78D8" fill-rule="evenodd"/><path d="M1642.54 1156 1642.54 1122.42 1635 1122.42 1645.5 1090 1656 1122.42 1648.46 1122.42 1648.46 1156Z" fill="#6AA84F" fill-rule="evenodd"/><path d="M1242.77 1198.29 1498.49 1323.53 1501.77 1316.83 1526 1340.27 1492.63 1335.49 1495.91 1328.8 1240.19 1203.56Z" fill="#999999" fill-rule="evenodd"/><path d="M1242.51 1197.69 1499.44 1075.02 1496.22 1068.28 1529.71 1063.82 1505.19 1087.07 1501.97 1080.32 1245.04 1203Z" fill="#999999" fill-rule="evenodd"/><text font-family="Arial,Arial_MSFontService,sans-serif" font-weight="700" font-size="41" transform="matrix(1 0 0 1 295.878 1030)">Input Graph</text><text font-family="Arial,Arial_MSFontService,sans-serif" font-weight="700" font-size="37" transform="matrix(1 0 0 1 2357.2 910)">Forward Model Output</text><text font-family="Arial,Arial_MSFontService,sans-serif" font-weight="700" font-size="37" transform="matrix(1 0 0 1 2365.44 1205)">Contact Policy Output</text><path d="M2842.5 1072.5 2842.5 1107.82" stroke="#000000" stroke-width="6.875" stroke-linejoin="round" stroke-miterlimit="10" fill="none" fill-rule="evenodd"/><path d="M2842.5 1009.5 2842.5 1044.82" stroke="#000000" stroke-width="6.875" stroke-linejoin="round" stroke-miterlimit="10" fill="none" fill-rule="evenodd"/><path d="M2830.5 996C2830.5 988.544 2836.1 982.5 2843 982.5 2849.9 982.5 2855.5 988.544 2855.5 996 2855.5 1003.46 2849.9 1009.5 2843 1009.5 2836.1 1009.5 2830.5 1003.46 2830.5 996Z" stroke="#000000" stroke-width="6.875" stroke-linejoin="round" stroke-miterlimit="10" fill="#E06666" fill-rule="evenodd"/><path d="M2830.5 1058.5C2830.5 1050.77 2836.1 1044.5 2843 1044.5 2849.9 1044.5 2855.5 1050.77 2855.5 1058.5 2855.5 1066.23 2849.9 1072.5 2843 1072.5 2836.1 1072.5 2830.5 1066.23 2830.5 1058.5Z" stroke="#000000" stroke-width="6.875" stroke-linejoin="round" stroke-miterlimit="10" fill="#E06666" fill-rule="evenodd"/><path d="M2830.5 1121C2830.5 1113.54 2836.1 1107.5 2843 1107.5 2849.9 1107.5 2855.5 1113.54 2855.5 1121 2855.5 1128.46 2849.9 1134.5 2843 1134.5 2836.1 1134.5 2830.5 1128.46 2830.5 1121Z" stroke="#000000" stroke-width="6.875" stroke-linejoin="round" stroke-miterlimit="10" fill="#E06666" fill-rule="evenodd"/><path d="M2923.69 983.368 2917.66 998.404" stroke="#000000" stroke-width="6.875" stroke-linejoin="round" stroke-miterlimit="10" fill="none" fill-rule="evenodd"/><path d="M0 0 44.6323 17.6336" stroke="#000000" stroke-width="6.875" stroke-linejoin="round" stroke-miterlimit="10" fill="none" fill-rule="evenodd" transform="matrix(-0.866019 -0.500011 -0.500011 0.866019 2902.34 1006.64)"/><path d="M2903.25 1002.48C2907.01 995.964 2914.94 993.497 2920.96 996.971 2926.97 1000.44 2928.8 1008.54 2925.04 1015.06 2921.27 1021.57 2913.35 1024.04 2907.33 1020.57 2901.32 1017.09 2899.49 1009 2903.25 1002.48Z" stroke="#000000" stroke-width="6.875" stroke-linejoin="round" stroke-miterlimit="10" fill="#E06666" fill-rule="evenodd"/><path d="M2918.53 964.616C2922.29 958.099 2930.22 955.633 2936.24 959.106 2942.25 962.579 2944.08 970.678 2940.32 977.194 2936.55 983.71 2928.63 986.177 2922.61 982.703 2916.6 979.23 2914.77 971.132 2918.53 964.616Z" stroke="#000000" stroke-width="6.875" stroke-linejoin="round" stroke-miterlimit="10" fill="#E06666" fill-rule="evenodd"/><path d="M0 0 20.0746 1.24544" stroke="#000000" stroke-width="6.875" stroke-linejoin="round" stroke-miterlimit="10" fill="none" fill-rule="evenodd" transform="matrix(0.866019 0.500011 0.500011 -0.866019 2925.6 1013.96)"/><path d="M2944.07 1022.14C2947.84 1015.62 2955.76 1013.15 2961.78 1016.63 2967.79 1020.1 2969.62 1028.2 2965.86 1034.72 2962.1 1041.23 2954.17 1043.7 2948.15 1040.23 2942.14 1036.75 2940.31 1028.65 2944.07 1022.14Z" stroke="#000000" stroke-width="6.875" stroke-linejoin="round" stroke-miterlimit="10" fill="#E06666" fill-rule="evenodd"/><path d="M0 0 2.29131 16.0402" stroke="#000000" stroke-width="6.875" stroke-linejoin="round" stroke-miterlimit="10" fill="none" fill-rule="evenodd" transform="matrix(-1 0 0 1 2779.79 941.5)"/><path d="M2786.5 972.5 2831.13 990.134" stroke="#000000" stroke-width="6.875" stroke-linejoin="round" stroke-miterlimit="10" fill="none" fill-rule="evenodd"/><path d="M0 13.4999C-1.65508e-15 6.04411 5.82033-1.71872e-15 13.0001-3.43744e-15 20.1798-6.87487e-15 26.0001 6.04411 26.0001 13.4999 26.0001 20.9557 20.1798 26.9998 13.0001 26.9998 5.82033 26.9998-8.27541e-15 20.9557 0 13.4999Z" stroke="#000000" stroke-width="6.875" stroke-linejoin="round" stroke-miterlimit="10" fill="#E06666" fill-rule="evenodd" transform="matrix(-1 0 0 1 2788.5 955.5)"/><path d="M0 13.5001C-1.59142e-15 6.04419 5.59646-1.71874e-15 12.5-3.43748e-15 19.4036-6.87496e-15 25.0001 6.04419 25.0001 13.5001 25.0001 20.956 19.4036 27.0002 12.5 27.0002 5.59646 27.0002-7.95712e-15 20.956 0 13.5001Z" stroke="#000000" stroke-width="6.875" stroke-linejoin="round" stroke-miterlimit="10" fill="#E06666" fill-rule="evenodd" transform="matrix(-1 0 0 1 2793.5 914.5)"/><path d="M2762.57 967.746 2742.5 966.5" stroke="#000000" stroke-width="6.875" stroke-linejoin="round" stroke-miterlimit="10" fill="none" fill-rule="evenodd"/><path d="M0 13.5001C-1.59142e-15 6.04419 5.59646-1.71874e-15 12.5-3.43748e-15 19.4036-6.87496e-15 25.0001 6.04419 25.0001 13.5001 25.0001 20.956 19.4036 27.0002 12.5 27.0002 5.59646 27.0002-7.95712e-15 20.956 0 13.5001Z" stroke="#000000" stroke-width="6.875" stroke-linejoin="round" stroke-miterlimit="10" fill="#E06666" fill-rule="evenodd" transform="matrix(-1 0 0 1 2742.5 951.5)"/><path d="M2908.5 1259.5 2910.8 1275.6" stroke="#000000" stroke-width="6.875" stroke-linejoin="round" stroke-miterlimit="10" fill="none" fill-rule="evenodd"/><path d="M0 0 44.5724 17.7234" stroke="#000000" stroke-width="6.875" stroke-linejoin="round" stroke-miterlimit="10" fill="none" fill-rule="evenodd" transform="matrix(-1 0 0 1 2901.07 1290.5)"/><path d="M2845.5 1390.5 2845.5 1425.95" stroke="#000000" stroke-width="6.875" stroke-linejoin="round" stroke-miterlimit="10" fill="none" fill-rule="evenodd"/><path d="M2845.5 1327.5 2845.5 1362.95" stroke="#000000" stroke-width="6.875" stroke-linejoin="round" stroke-miterlimit="10" fill="none" fill-rule="evenodd"/><path d="M2900.5 1286.5C2900.5 1278.77 2906.1 1272.5 2913 1272.5 2919.9 1272.5 2925.5 1278.77 2925.5 1286.5 2925.5 1294.23 2919.9 1300.5 2913 1300.5 2906.1 1300.5 2900.5 1294.23 2900.5 1286.5Z" stroke="#000000" stroke-width="6.875" stroke-linejoin="round" stroke-miterlimit="10" fill="#783F04" fill-rule="evenodd"/><path d="M2833.5 1314C2833.5 1306.54 2839.1 1300.5 2846 1300.5 2852.9 1300.5 2858.5 1306.54 2858.5 1314 2858.5 1321.46 2852.9 1327.5 2846 1327.5 2839.1 1327.5 2833.5 1321.46 2833.5 1314Z" stroke="#000000" stroke-width="6.875" stroke-linejoin="round" stroke-miterlimit="10" fill="#783F04" fill-rule="evenodd"/><path d="M2833.5 1376.5C2833.5 1368.77 2839.1 1362.5 2846 1362.5 2852.9 1362.5 2858.5 1368.77 2858.5 1376.5 2858.5 1384.23 2852.9 1390.5 2846 1390.5 2839.1 1390.5 2833.5 1384.23 2833.5 1376.5Z" stroke="#000000" stroke-width="6.875" stroke-linejoin="round" stroke-miterlimit="10" fill="#783F04" fill-rule="evenodd"/><path d="M2833.5 1439.5C2833.5 1431.77 2839.1 1425.5 2846 1425.5 2852.9 1425.5 2858.5 1431.77 2858.5 1439.5 2858.5 1447.23 2852.9 1453.5 2846 1453.5 2839.1 1453.5 2833.5 1447.23 2833.5 1439.5Z" stroke="#000000" stroke-width="6.875" stroke-linejoin="round" stroke-miterlimit="10" fill="#783F04" fill-rule="evenodd"/><path d="M2894.5 1246C2894.5 1238.54 2900.1 1232.5 2907 1232.5 2913.9 1232.5 2919.5 1238.54 2919.5 1246 2919.5 1253.46 2913.9 1259.5 2907 1259.5 2900.1 1259.5 2894.5 1253.46 2894.5 1246Z" stroke="#000000" stroke-width="6.875" stroke-linejoin="round" stroke-miterlimit="10" fill="#783F04" fill-rule="evenodd"/><path d="M0 0 20.0404 1.27431" stroke="#000000" stroke-width="6.875" stroke-linejoin="round" stroke-miterlimit="10" fill="none" fill-rule="evenodd" transform="matrix(1 -1.22465e-16 -1.22465e-16 -1 2925.5 1284.77)"/><path d="M2945.5 1283C2945.5 1275.54 2951.1 1269.5 2958 1269.5 2964.9 1269.5 2970.5 1275.54 2970.5 1283 2970.5 1290.46 2964.9 1296.5 2958 1296.5 2951.1 1296.5 2945.5 1290.46 2945.5 1283Z" stroke="#000000" stroke-width="6.875" stroke-linejoin="round" stroke-miterlimit="10" fill="#783F04" fill-rule="evenodd"/><path d="M0 0 2.30358 16.1019" stroke="#000000" stroke-width="6.875" stroke-linejoin="round" stroke-miterlimit="10" fill="none" fill-rule="evenodd" transform="matrix(-1 0 0 1 2782.8 1259.5)"/><path d="M2789.5 1290.5 2834.07 1308.22" stroke="#000000" stroke-width="6.875" stroke-linejoin="round" stroke-miterlimit="10" fill="none" fill-rule="evenodd"/><path d="M0 13.9999C-1.59142e-15 6.26798 5.59646-1.78238e-15 12.5-3.56475e-15 19.4036-7.12951e-15 25.0001 6.26798 25.0001 13.9999 25.0001 21.7319 19.4036 27.9998 12.5 27.9998 5.59646 27.9998-7.95712e-15 21.7319 0 13.9999Z" stroke="#000000" stroke-width="6.875" stroke-linejoin="round" stroke-miterlimit="10" fill="#783F04" fill-rule="evenodd" transform="matrix(-1 0 0 1 2791.5 1272.5)"/><path d="M0 13.5001C-1.5914e-15 6.04419 5.59638-1.71874e-15 12.4999-3.43748e-15 19.4034-6.87496e-15 24.9997 6.04419 24.9997 13.5001 24.9997 20.956 19.4034 27.0002 12.4999 27.0002 5.59638 27.0002-7.957e-15 20.956 0 13.5001Z" stroke="#000000" stroke-width="6.875" stroke-linejoin="round" stroke-miterlimit="10" fill="#783F04" fill-rule="evenodd" transform="matrix(-1 0 0 1 2796.5 1232.5)"/><path d="M2766.54 1284.77 2746.5 1283.5" stroke="#000000" stroke-width="6.875" stroke-linejoin="round" stroke-miterlimit="10" fill="none" fill-rule="evenodd"/><path d="M0 13.5001C-1.59142e-15 6.04419 5.59646-1.71874e-15 12.5-3.43748e-15 19.4036-6.87496e-15 25.0001 6.04419 25.0001 13.5001 25.0001 20.956 19.4036 27.0002 12.5 27.0002 5.59646 27.0002-7.95712e-15 20.956 0 13.5001Z" stroke="#000000" stroke-width="6.875" stroke-linejoin="round" stroke-miterlimit="10" fill="#783F04" fill-rule="evenodd" transform="matrix(-1 0 0 1 2746.5 1269.5)"/><path d="M2959.46 1282.77 2978.17 1342.78 2985.72 1340.42 2980.89 1355.53 2968.32 1345.85 2975.87 1343.49 2957.16 1283.48Z" fill="#FF0000" fill-rule="evenodd"/><path d="M2913.13 1285.51 2937.12 1323.86 2943.84 1319.66 2942.99 1335.52 2928.35 1329.34 2935.08 1325.14 2911.09 1286.78Z" fill="#FF0000" fill-rule="evenodd"/><path d="M2908.28 1243.89 2935.79 1279.82 2942.08 1274.99 2942.73 1290.87 2927.58 1286.1 2933.87 1281.28 2906.37 1245.36Z" fill="#FF0000" fill-rule="evenodd"/><path d="M2846.89 1310.53 2861.71 1329.89 2868.01 1325.07 2868.66 1340.94 2853.5 1336.17 2859.8 1331.35 2844.98 1311.99Z" fill="#FF0000" fill-rule="evenodd"/><path d="M2778.55 1284.66 2797.92 1298.95 2802.66 1292.52 2807.74 1307.69 2791.75 1307.32 2796.49 1300.9 2777.11 1286.61Z" fill="#FF0000" fill-rule="evenodd"/><path d="M2784.58 1244.48 2801.77 1261.71 2807.4 1256.09 2810.13 1271.79 2794.43 1269.03 2800.06 1263.41 2782.87 1246.19Z" fill="#FF0000" fill-rule="evenodd"/><path d="M2732.97 1282.58 2750.16 1299.8 2755.79 1294.19 2758.52 1309.89 2742.82 1307.13 2748.45 1301.51 2731.26 1284.29Z" fill="#FF0000" fill-rule="evenodd"/><path d="M2846.1 1375.13 2867.51 1386.08 2871.15 1378.96 2878.63 1393.12 2862.76 1395.35 2866.4 1388.24 2844.99 1377.29Z" fill="#FF0000" fill-rule="evenodd"/><path d="M2846.95 1437.56 2857.11 1433.83 2854.36 1426.33 2869.82 1430.44 2860.71 1443.59 2857.95 1436.1 2847.79 1439.84Z" fill="#FF0000" fill-rule="evenodd"/><path d="M1949.5 938.39 1949.5 866.5" stroke="#000000" stroke-width="6.875" stroke-linejoin="round" stroke-miterlimit="10" fill="none" fill-rule="evenodd"/><path d="M1948 871.464 1865.42 871.464 1865.42 879 1833 868.5 1865.42 858 1865.42 865.536 1948 865.536Z" fill-rule="evenodd"/><path d="M1228.46 865 1228.46 911.578 1236 911.578 1225.5 944 1215 911.578 1222.54 911.578 1222.54 865Z" fill-rule="evenodd"/><path d="M1227.5 869.5 1363.7 869.5" stroke="#000000" stroke-width="6.875" stroke-linejoin="round" stroke-miterlimit="10" fill="none" fill-rule="evenodd"/><path d="M1762 1052.89 1876.03 1052.89 1876.03 1045 1910 1056 1876.03 1067 1876.03 1059.11 1762 1059.11Z" fill="#6AA84F" fill-rule="evenodd"/><path d="M1762 1343.89 1876.03 1343.89 1876.03 1336 1910 1347 1876.03 1358 1876.03 1350.11 1762 1350.11Z" fill="#3C78D8" fill-rule="evenodd"/><rect x="2034" y="1090" width="49.0002" height="4.99976" fill="#F6B26B"/><rect x="2081" y="1089" width="4.99976" height="264" fill="#F6B26B"/><text font-family="Cambria Math,Cambria Math_MSFontService,sans-serif" font-weight="400" font-size="50" transform="matrix(1 0 0 1 666.267 1205)">ğ’ˆ</text><text fill="#6AA84F" font-family="Cambria Math,Cambria Math_MSFontService,sans-serif" font-weight="400" font-size="50" transform="matrix(1 0 0 1 625.367 1056)">{</text><text fill="#6AA84F" font-family="Cambria Math,Cambria Math_MSFontService,sans-serif" font-weight="400" font-size="50" transform="matrix(1 0 0 1 644.846 1056)">ğ’</text><text fill="#6AA84F" font-family="Cambria Math,Cambria Math_MSFontService,sans-serif" font-weight="400" font-size="37" transform="matrix(1 0 0 1 673.033 1067)">ğ‘—</text><text fill="#6AA84F" font-family="Cambria Math,Cambria Math_MSFontService,sans-serif" font-weight="400" font-size="50" transform="matrix(1 0 0 1 693.567 1056)">}</text><text fill="#3C78D8" font-family="Cambria Math,Cambria Math_MSFontService,sans-serif" font-weight="400" font-size="50" transform="matrix(1 0 0 1 613.017 1358)">{</text><text fill="#3C78D8" font-family="Cambria Math,Cambria Math_MSFontService,sans-serif" font-weight="400" font-size="50" transform="matrix(1 0 0 1 632.496 1358)">ğ’†</text><text fill="#3C78D8" font-family="Cambria Math,Cambria Math_MSFontService,sans-serif" font-weight="400" font-size="37" transform="matrix(1 0 0 1 659.996 1368)">ğ’Šğ’‹</text><text fill="#3C78D8" font-family="Cambria Math,Cambria Math_MSFontService,sans-serif" font-weight="400" font-size="50" transform="matrix(1 0 0 1 690.155 1358)">}</text><text fill="#3C78D8" font-family="Cambria Math,Cambria Math_MSFontService,sans-serif" font-weight="400" font-size="50" transform="matrix(1 0 0 1 1146.57 1359)">{</text><text fill="#3C78D8" font-family="Cambria Math,Cambria Math_MSFontService,sans-serif" font-weight="400" font-size="50" transform="matrix(1 0 0 1 1166.05 1359)">ğ’†</text><text fill="#3C78D8" font-family="Cambria Math,Cambria Math_MSFontService,sans-serif" font-weight="400" font-size="37" transform="matrix(1 0 0 1 1193.55 1369)">ğ’Šğ’‹</text><text fill="#3C78D8" font-family="Cambria Math,Cambria Math_MSFontService,sans-serif" font-weight="400" font-size="50" transform="matrix(1 0 0 1 1223.71 1359)">}</text><text fill="#3C78D8" font-family="Cambria Math,Cambria Math_MSFontService,sans-serif" font-weight="400" font-size="50" transform="matrix(1 0 0 1 1917.65 1360)">{</text><text fill="#3C78D8" font-family="Cambria Math,Cambria Math_MSFontService,sans-serif" font-weight="400" font-size="50" transform="matrix(1 0 0 1 1937.13 1360)">ğ’†</text><text fill="#3C78D8" font-family="Cambria Math,Cambria Math_MSFontService,sans-serif" font-weight="400" font-size="37" transform="matrix(1 0 0 1 1964.63 1372)">ğ‘–ğ‘—</text><text fill="#3C78D8" font-family="Cambria Math,Cambria Math_MSFontService,sans-serif" font-weight="400" font-size="37" transform="matrix(1 0 0 1 1964.63 1339)">âˆ—</text><text fill="#3C78D8" font-family="Cambria Math,Cambria Math_MSFontService,sans-serif" font-weight="400" font-size="50" transform="matrix(1 0 0 1 1998.34 1360)">}</text><text fill="#6AA84F" font-family="Cambria Math,Cambria Math_MSFontService,sans-serif" font-weight="400" font-size="50" transform="matrix(1 0 0 1 1148.53 1062)">{</text><text fill="#6AA84F" font-family="Cambria Math,Cambria Math_MSFontService,sans-serif" font-weight="400" font-size="50" transform="matrix(1 0 0 1 1168.01 1062)">ğ’</text><text fill="#6AA84F" font-family="Cambria Math,Cambria Math_MSFontService,sans-serif" font-weight="400" font-size="37" transform="matrix(1 0 0 1 1196.2 1073)">ğ‘—</text><text fill="#6AA84F" font-family="Cambria Math,Cambria Math_MSFontService,sans-serif" font-weight="400" font-size="50" transform="matrix(1 0 0 1 1216.73 1062)">}</text><text fill="#6AA84F" font-family="Cambria Math,Cambria Math_MSFontService,sans-serif" font-weight="400" font-size="50" transform="matrix(1 0 0 1 1922.54 1069)">{</text><text fill="#6AA84F" font-family="Cambria Math,Cambria Math_MSFontService,sans-serif" font-weight="400" font-size="50" transform="matrix(1 0 0 1 1942.02 1069)">ğ’</text><text fill="#6AA84F" font-family="Cambria Math,Cambria Math_MSFontService,sans-serif" font-weight="400" font-size="37" transform="matrix(1 0 0 1 1970.2 1081)">ğ‘—</text><text fill="#6AA84F" font-family="Cambria Math,Cambria Math_MSFontService,sans-serif" font-weight="400" font-size="37" transform="matrix(1 0 0 1 1974.67 1049)">âˆ—</text><text fill="#6AA84F" font-family="Cambria Math,Cambria Math_MSFontService,sans-serif" font-weight="400" font-size="50" transform="matrix(1 0 0 1 1994.52 1069)">}</text><text fill="#3C78D8" font-family="Cambria Math,Cambria Math_MSFontService,sans-serif" font-weight="400" font-size="41" transform="matrix(1 0 0 1 1665.22 1281)">{</text><text fill="#3C78D8" font-family="Cambria Math,Cambria Math_MSFontService,sans-serif" font-weight="400" font-size="41" transform="matrix(1 0 0 1 1681.26 1281)">ğ’†</text><text fill="#3C78D8" font-family="Cambria Math,Cambria Math_MSFontService,sans-serif" font-weight="400" font-size="30" transform="matrix(1 0 0 1 1704.17 1291)">ğ‘–ğ‘—</text><text fill="#3C78D8" font-family="Cambria Math,Cambria Math_MSFontService,sans-serif" font-weight="400" font-size="30" transform="matrix(1 0 0 1 1704.17 1264)">âˆ—</text><text fill="#3C78D8" font-family="Cambria Math,Cambria Math_MSFontService,sans-serif" font-weight="400" font-size="41" transform="matrix(1 0 0 1 1731.56 1281)">}</text><text fill="#6AA84F" font-family="Cambria Math,Cambria Math_MSFontService,sans-serif" font-weight="400" font-size="41" transform="matrix(1 0 0 1 1667.47 1135)">{</text><text fill="#6AA84F" font-family="Cambria Math,Cambria Math_MSFontService,sans-serif" font-weight="400" font-size="41" transform="matrix(1 0 0 1 1683.51 1135)">ğ’†</text><path d="M9.82959-28.8682 16.6362-22.562 15.5552-21.4209 8.48828-26.2856 8.26807-26.2856 1.08105-21.4209 0-22.562 7.14697-28.8682Z" fill="#6AA84F" transform="matrix(1 0 0 1 1686.61 1134)"/><text fill="#000000" fill-opacity="0" font-family="Arial,Arial_MSFontService,sans-serif" font-size="7.44727" y="-22.3518">à·œ</text><text fill="#6AA84F" font-family="Cambria Math,Cambria Math_MSFontService,sans-serif" font-weight="400" font-size="30" transform="matrix(1 0 0 1 1702.76 1143)">ğ‘—</text><text fill="#6AA84F" font-family="Cambria Math,Cambria Math_MSFontService,sans-serif" font-weight="400" font-size="41" transform="matrix(1 0 0 1 1719.83 1135)">}</text><path d="M2559.66 1269.26 2560.29 1269.26 2560.29 1271.11 2559.93 1271.11C2557.57 1271.11 2555.72 1271.73 2554.39 1272.96 2553.05 1274.19 2552.38 1276.21 2552.38 1279.02 2552.38 1280.16 2552.55 1281.57 2552.87 1283.25 2553.2 1284.92 2553.36 1286.12 2553.36 1286.84 2553.36 1288.22 2552.95 1289.35 2552.14 1290.24 2551.33 1291.13 2550.36 1291.78 2549.24 1292.21L2549.24 1292.65C2550.36 1293.07 2551.33 1293.72 2552.14 1294.61 2552.95 1295.5 2553.36 1296.63 2553.36 1298.02 2553.36 1298.73 2553.2 1299.93 2552.87 1301.61 2552.55 1303.28 2552.38 1304.69 2552.38 1305.83 2552.38 1308.79 2553.05 1310.89 2554.39 1312.12 2555.72 1313.35 2557.57 1313.96 2559.93 1313.96L2560.29 1313.96 2560.29 1315.82 2559.66 1315.82C2555.83 1315.75 2552.97 1314.88 2551.08 1313.19 2549.18 1311.51 2548.23 1308.91 2548.23 1305.39 2548.23 1304.04 2548.43 1302.5 2548.81 1300.78 2549.19 1299.05 2549.38 1297.9 2549.38 1297.31 2549.38 1296.19 2549 1295.27 2548.22 1294.56 2547.45 1293.86 2546.28 1293.48 2544.72 1293.43L2544.72 1291.43C2546.28 1291.38 2547.45 1291 2548.22 1290.29 2549 1289.58 2549.38 1288.67 2549.38 1287.54 2549.38 1286.96 2549.19 1285.8 2548.81 1284.08 2548.43 1282.35 2548.23 1280.81 2548.23 1279.46 2548.23 1276.09 2549.18 1273.57 2551.08 1271.88 2552.97 1270.2 2555.83 1269.32 2559.66 1269.26Z" fill="#E69138" fill-rule="evenodd"/><text fill="#000000" fill-opacity="0" font-family="Arial,Arial_MSFontService,sans-serif" font-size="46.5576" x="2544.72" y="1310">{</text><path d="M2580.12 1271.31 2597.84 1271.31 2595.55 1279.54 2592.4 1279.54C2592.36 1278.3 2592.28 1277.35 2592.14 1276.68 2592 1276.01 2591.82 1275.55 2591.6 1275.3 2591.38 1275.05 2591.14 1274.88 2590.88 1274.8 2590.62 1274.72 2590.21 1274.68 2589.64 1274.68L2585.78 1274.68 2581.6 1293.94C2581.04 1296.59 2580.23 1298.69 2579.18 1300.23 2578.13 1301.77 2576.8 1302.95 2575.18 1303.78 2573.57 1304.61 2571.75 1305.02 2569.72 1305.02 2568.12 1305.02 2566.71 1304.64 2565.48 1303.88 2564.25 1303.11 2563.16 1301.99 2562.2 1300.51L2566.81 1297.92C2567.3 1299.29 2567.89 1300.33 2568.58 1301.05 2569.27 1301.76 2569.92 1302.12 2570.52 1302.12 2570.99 1302.12 2571.36 1302.05 2571.63 1301.92 2571.9 1301.79 2572.16 1301.57 2572.41 1301.26 2572.67 1300.96 2572.91 1300.46 2573.15 1299.79 2573.38 1299.11 2573.62 1298.22 2573.87 1297.11L2576.6 1284.22C2577.06 1282.09 2577.57 1280.29 2578.14 1278.8 2578.71 1277.32 2579.45 1276.02 2580.36 1274.9L2580.21 1274.63 2579.31 1274.63C2577.1 1274.63 2575.37 1274.73 2574.13 1274.95 2572.9 1275.16 2571.99 1275.51 2571.41 1276 2570.83 1276.48 2570.55 1277.25 2570.55 1278.29 2570.55 1279.35 2570.94 1280.48 2571.74 1281.68L2566 1284.05C2565.53 1283.19 2565.21 1282.48 2565.03 1281.93 2564.85 1281.38 2564.76 1280.82 2564.76 1280.27 2564.76 1279.68 2564.92 1279.05 2565.25 1278.36 2565.64 1277.53 2566.22 1276.7 2567.01 1275.87 2567.75 1275.11 2568.68 1274.39 2569.79 1273.7 2570.8 1273.07 2571.71 1272.59 2572.52 1272.26 2573.48 1271.89 2574.56 1271.63 2575.75 1271.48 2576.77 1271.37 2578.23 1271.31 2580.12 1271.31Z" fill="#E69138" fill-rule="evenodd"/><text fill="#000000" fill-opacity="0" font-family="Arial,Arial_MSFontService,sans-serif" font-size="33.7158" x="2562.2" y="1300.81">ğ“£</text><path d="M2607.17 1302.16 2608.42 1302.16 2604.66 1319.86C2604.36 1321.24 2603.97 1322.41 2603.5 1323.4 2603.02 1324.38 2602.44 1325.18 2601.75 1325.81 2601.07 1326.43 2600.27 1326.89 2599.35 1327.19 2598.44 1327.48 2597.39 1327.63 2596.21 1327.63 2595.9 1327.63 2595.59 1327.62 2595.3 1327.59 2595.02 1327.56 2594.76 1327.51 2594.53 1327.45L2594.98 1325.55C2595.12 1325.61 2595.32 1325.65 2595.56 1325.67 2595.8 1325.69 2596.08 1325.7 2596.39 1325.7 2596.98 1325.7 2597.51 1325.62 2597.97 1325.46 2598.43 1325.31 2598.85 1325.02 2599.22 1324.61 2599.58 1324.21 2599.91 1323.64 2600.21 1322.93 2600.51 1322.21 2600.78 1321.29 2601.03 1320.17 2601.45 1318.22 2601.86 1316.39 2602.24 1314.68 2602.63 1312.97 2602.94 1311.53 2603.19 1310.38 2603.44 1309.22 2603.63 1308.3 2603.78 1307.61 2603.92 1306.93 2604.03 1306.4 2604.09 1306.02 2604.16 1305.65 2604.2 1305.39 2604.21 1305.23 2604.22 1305.07 2604.23 1304.95 2604.23 1304.85 2604.23 1304.43 2604.07 1304.12 2603.75 1303.92 2603.43 1303.72 2602.87 1303.61 2602.06 1303.59L2602.33 1302.36ZM2606.51 1294.88 2610.14 1294.88 2609.25 1298.76 2605.62 1298.76Z" fill="#E69138" fill-rule="evenodd"/><text fill="#000000" fill-opacity="0" font-family="Arial,Arial_MSFontService,sans-serif" font-size="32.7544" x="2594.53" y="1323.54">ğ‘—</text><path d="M2613.59 1262.8C2612.86 1262.8 2612.18 1263.02 2611.56 1263.46 2610.94 1263.9 2610.28 1264.53 2609.57 1265.35 2609.24 1265.74 2608.94 1266.12 2608.66 1266.49 2608.39 1266.86 2608.14 1267.27 2607.91 1267.71 2607.69 1268.15 2607.49 1268.64 2607.32 1269.17 2607.14 1269.71 2606.99 1270.33 2606.86 1271.03 2606.69 1271.86 2606.55 1272.55 2606.46 1273.12 2606.36 1273.69 2606.31 1274.22 2606.31 1274.73 2606.31 1275.7 2606.54 1276.39 2606.99 1276.8 2607.44 1277.2 2608.17 1277.4 2609.17 1277.4 2609.87 1277.4 2610.52 1277.25 2611.13 1276.94 2611.74 1276.63 2612.29 1276.22 2612.78 1275.69 2613.28 1275.16 2613.71 1274.54 2614.1 1273.83 2614.49 1273.13 2614.81 1272.38 2615.07 1271.58 2615.33 1270.78 2615.52 1269.95 2615.66 1269.11 2615.8 1268.27 2615.87 1267.45 2615.87 1266.65 2615.87 1265.36 2615.69 1264.4 2615.34 1263.76 2614.98 1263.12 2614.4 1262.8 2613.59 1262.8ZM2673.28 1262.17C2672.57 1262.17 2671.91 1262.33 2671.3 1262.63 2670.7 1262.94 2670.14 1263.36 2669.63 1263.9 2669.13 1264.43 2668.68 1265.05 2668.28 1265.76 2667.88 1266.46 2667.55 1267.22 2667.27 1268.02 2667 1268.82 2666.8 1269.64 2666.66 1270.47 2666.52 1271.31 2666.45 1272.13 2666.45 1272.92 2666.45 1274.22 2666.64 1275.19 2667 1275.82 2667.37 1276.45 2667.96 1276.77 2668.78 1276.77 2669.34 1276.77 2669.95 1276.58 2670.63 1276.21 2671.3 1275.84 2671.95 1275.3 2672.59 1274.59 2673.22 1273.89 2673.8 1273.03 2674.33 1272.02 2674.86 1271.01 2675.26 1269.87 2675.52 1268.6 2675.65 1267.95 2675.78 1267.3 2675.88 1266.65 2675.99 1266 2676.05 1265.41 2676.05 1264.86 2676.05 1263.89 2675.83 1263.2 2675.39 1262.79 2674.95 1262.38 2674.25 1262.17 2673.28 1262.17ZM2653.41 1262.17C2652.75 1262.17 2652.09 1262.34 2651.45 1262.66 2650.8 1262.99 2650.2 1263.45 2649.62 1264.04 2649.05 1264.64 2648.53 1265.36 2648.06 1266.21 2647.59 1267.06 2647.2 1268.01 2646.89 1269.06 2648.42 1269.04 2649.73 1268.92 2650.83 1268.69 2651.94 1268.47 2652.84 1268.15 2653.54 1267.76 2654.25 1267.36 2654.77 1266.89 2655.1 1266.35 2655.43 1265.8 2655.59 1265.21 2655.59 1264.56 2655.59 1263.81 2655.41 1263.23 2655.03 1262.8 2654.66 1262.38 2654.12 1262.17 2653.41 1262.17ZM2654.19 1260.38C2655.73 1260.38 2656.9 1260.72 2657.7 1261.4 2658.5 1262.07 2658.9 1263.03 2658.9 1264.27 2658.9 1268.63 2654.78 1270.81 2646.53 1270.81 2646.46 1271.12 2646.42 1271.46 2646.38 1271.83 2646.34 1272.2 2646.33 1272.6 2646.33 1273.03 2646.33 1274.34 2646.59 1275.3 2647.13 1275.9 2647.67 1276.51 2648.5 1276.81 2649.63 1276.81 2650.22 1276.81 2650.78 1276.74 2651.31 1276.62 2651.84 1276.49 2652.36 1276.29 2652.88 1276.03 2653.39 1275.76 2653.9 1275.42 2654.42 1275.01 2654.94 1274.59 2655.48 1274.1 2656.05 1273.52L2657.4 1274.98C2656 1276.37 2654.61 1277.41 2653.22 1278.11 2651.83 1278.81 2650.33 1279.16 2648.73 1279.16 2647.79 1279.16 2646.96 1279.01 2646.23 1278.73 2645.5 1278.45 2644.88 1278.03 2644.38 1277.49 2643.88 1276.95 2643.51 1276.29 2643.25 1275.51 2642.99 1274.74 2642.86 1273.86 2642.86 1272.89 2642.86 1272.2 2642.92 1271.49 2643.04 1270.75 2643.16 1270 2643.35 1269.26 2643.6 1268.52 2643.85 1267.78 2644.16 1267.06 2644.54 1266.35 2644.91 1265.65 2645.35 1264.99 2645.86 1264.38 2646.87 1263.12 2648.09 1262.15 2649.52 1261.44 2650.94 1260.74 2652.5 1260.38 2654.19 1260.38ZM2628.12 1260.38C2629.01 1260.38 2629.7 1260.68 2630.19 1261.26 2630.68 1261.84 2630.92 1262.61 2630.92 1263.56 2630.92 1264.11 2630.84 1264.59 2630.67 1265.01L2630.92 1265.12C2632.14 1263.49 2633.32 1262.3 2634.47 1261.53 2635.62 1260.77 2636.81 1260.38 2638.02 1260.38 2638.48 1260.38 2638.91 1260.41 2639.31 1260.46 2639.72 1260.5 2640.11 1260.56 2640.48 1260.64L2639.56 1265.01 2637.46 1265.01C2637.4 1264.29 2637.25 1263.77 2637 1263.46 2636.75 1263.14 2636.4 1262.99 2635.93 1262.99 2635.65 1262.97 2635.33 1263.06 2634.97 1263.24 2634.61 1263.42 2634.22 1263.68 2633.82 1264.02 2633.42 1264.35 2633.02 1264.75 2632.62 1265.21 2632.22 1265.67 2631.85 1266.17 2631.49 1266.71 2631.14 1267.25 2630.83 1267.82 2630.56 1268.43 2630.3 1269.04 2630.1 1269.65 2629.96 1270.27L2628.12 1278.83 2624.58 1278.83 2627.29 1267.05C2627.46 1266.35 2627.58 1265.77 2627.64 1265.32 2627.71 1264.86 2627.74 1264.47 2627.74 1264.16 2627.74 1263.28 2627.39 1262.84 2626.68 1262.84 2626.45 1262.84 2626.22 1262.89 2626 1262.98 2625.78 1263.07 2625.54 1263.2 2625.3 1263.38 2625.06 1263.56 2624.8 1263.79 2624.51 1264.07 2624.22 1264.35 2623.89 1264.67 2623.53 1265.05L2622.29 1263.87C2622.89 1263.26 2623.44 1262.73 2623.94 1262.29 2624.44 1261.85 2624.92 1261.49 2625.38 1261.21 2625.83 1260.92 2626.28 1260.72 2626.73 1260.58 2627.18 1260.45 2627.64 1260.38 2628.12 1260.38ZM2605.21 1260.38C2606.09 1260.38 2606.77 1260.68 2607.26 1261.26 2607.75 1261.84 2607.99 1262.61 2607.99 1263.56 2607.99 1263.84 2607.97 1264.11 2607.93 1264.36 2607.89 1264.61 2607.81 1264.86 2607.7 1265.12L2607.96 1265.24C2609.14 1263.59 2610.3 1262.37 2611.44 1261.58 2612.57 1260.78 2613.77 1260.38 2615.02 1260.38 2616.46 1260.38 2617.55 1260.9 2618.32 1261.94 2619.08 1262.97 2619.47 1264.49 2619.47 1266.47 2619.47 1268.21 2619.2 1269.84 2618.66 1271.38 2618.13 1272.91 2617.4 1274.26 2616.49 1275.42 2615.57 1276.57 2614.51 1277.48 2613.3 1278.15 2612.09 1278.82 2610.81 1279.16 2609.46 1279.16 2608.52 1279.16 2607.7 1279.06 2607.01 1278.88 2606.32 1278.69 2605.74 1278.46 2605.28 1278.2 2605.18 1278.67 2605.06 1279.16 2604.93 1279.66 2604.81 1280.17 2604.68 1280.65 2604.57 1281.12 2604.46 1281.59 2604.36 1282.03 2604.29 1282.43 2604.22 1282.82 2604.18 1283.14 2604.18 1283.38 2604.18 1283.6 2604.22 1283.78 2604.28 1283.92 2604.35 1284.07 2604.47 1284.19 2604.64 1284.29 2604.82 1284.38 2605.05 1284.46 2605.34 1284.51 2605.63 1284.57 2605.99 1284.61 2606.42 1284.65L2606.37 1285.84 2600.01 1285.84 2604.42 1267.01C2604.56 1266.35 2604.66 1265.8 2604.72 1265.35 2604.78 1264.91 2604.81 1264.51 2604.81 1264.16 2604.81 1263.28 2604.46 1262.84 2603.75 1262.84 2603.53 1262.84 2603.31 1262.89 2603.1 1262.98 2602.88 1263.07 2602.65 1263.2 2602.4 1263.38 2602.16 1263.56 2601.88 1263.79 2601.59 1264.07 2601.29 1264.35 2600.97 1264.67 2600.6 1265.05L2599.36 1263.87C2599.96 1263.27 2600.51 1262.75 2601.01 1262.31 2601.51 1261.87 2601.99 1261.51 2602.46 1261.22 2602.92 1260.94 2603.37 1260.73 2603.81 1260.59 2604.25 1260.45 2604.72 1260.38 2605.21 1260.38ZM2681.23 1254.17 2682.15 1254.17 2677.96 1272.6C2677.79 1273.31 2677.68 1273.87 2677.63 1274.3 2677.57 1274.72 2677.55 1275.1 2677.55 1275.43 2677.55 1275.89 2677.64 1276.22 2677.83 1276.43 2678.01 1276.63 2678.28 1276.73 2678.63 1276.73 2678.85 1276.73 2679.06 1276.69 2679.27 1276.61 2679.48 1276.52 2679.71 1276.39 2679.96 1276.21 2680.2 1276.03 2680.48 1275.8 2680.77 1275.51 2681.07 1275.23 2681.4 1274.89 2681.77 1274.49 2681.97 1274.7 2682.16 1274.9 2682.37 1275.1 2682.57 1275.3 2682.77 1275.49 2682.97 1275.69 2682.36 1276.3 2681.82 1276.83 2681.32 1277.27 2680.83 1277.71 2680.35 1278.07 2679.89 1278.35 2679.42 1278.63 2678.97 1278.84 2678.52 1278.97 2678.08 1279.09 2677.61 1279.16 2677.13 1279.16 2676.26 1279.16 2675.59 1278.88 2675.11 1278.31 2674.62 1277.75 2674.38 1276.99 2674.38 1276.01 2674.38 1275.47 2674.47 1274.95 2674.64 1274.46L2674.38 1274.35C2673.77 1275.2 2673.17 1275.93 2672.6 1276.54 2672.02 1277.14 2671.45 1277.63 2670.88 1278.03 2670.31 1278.42 2669.74 1278.7 2669.16 1278.88 2668.58 1279.06 2667.98 1279.16 2667.36 1279.16 2665.92 1279.16 2664.81 1278.64 2664.03 1277.61 2663.25 1276.58 2662.86 1275.08 2662.86 1273.12 2662.86 1271.95 2662.98 1270.83 2663.23 1269.75 2663.47 1268.67 2663.82 1267.66 2664.28 1266.72 2664.73 1265.77 2665.27 1264.91 2665.89 1264.13 2666.52 1263.36 2667.21 1262.69 2667.95 1262.14 2668.7 1261.58 2669.49 1261.15 2670.34 1260.84 2671.18 1260.54 2672.05 1260.38 2672.96 1260.38 2673.75 1260.38 2674.48 1260.46 2675.14 1260.62 2675.81 1260.78 2676.44 1261.09 2677.04 1261.56 2677.24 1260.8 2677.41 1260.15 2677.53 1259.62 2677.65 1259.08 2677.75 1258.59 2677.83 1258.13 2677.9 1257.68 2677.94 1257.31 2677.94 1257.01 2677.94 1256.75 2677.91 1256.54 2677.84 1256.37 2677.78 1256.2 2677.66 1256.07 2677.49 1255.96 2677.32 1255.85 2677.08 1255.77 2676.78 1255.72 2676.47 1255.67 2676.08 1255.64 2675.61 1255.61L2675.85 1254.39Z" fill="#E69138" fill-rule="evenodd"/><text fill="#000000" fill-opacity="0" font-family="Arial,Arial_MSFontService,sans-serif" font-size="31.6704" x="2599.36" y="1281.88">ğ‘ğ‘Ÿğ‘’ğ‘‘</text><path d="M2689.2 1269.26 2689.84 1269.26C2693.66 1269.32 2696.52 1270.2 2698.42 1271.88 2700.31 1273.57 2701.26 1276.1 2701.26 1279.49 2701.26 1280.84 2701.07 1282.38 2700.69 1284.1 2700.31 1285.83 2700.11 1286.98 2700.11 1287.57 2700.11 1288.69 2700.5 1289.61 2701.27 1290.32 2702.05 1291.02 2703.22 1291.4 2704.78 1291.45L2704.78 1293.45C2703.22 1293.5 2702.05 1293.88 2701.27 1294.59 2700.5 1295.3 2700.11 1296.21 2700.11 1297.33 2700.11 1297.92 2700.31 1299.08 2700.69 1300.8 2701.07 1302.53 2701.26 1304.06 2701.26 1305.42 2701.26 1308.91 2700.31 1311.51 2698.42 1313.19 2696.52 1314.88 2693.66 1315.75 2689.84 1315.82L2689.2 1315.82 2689.2 1313.96 2689.57 1313.96C2691.93 1313.96 2693.78 1313.35 2695.11 1312.12 2696.44 1310.89 2697.11 1308.8 2697.11 1305.85 2697.11 1304.72 2696.95 1303.31 2696.62 1301.63 2696.3 1299.95 2696.14 1298.76 2696.14 1298.04 2696.14 1296.66 2696.54 1295.52 2697.36 1294.64 2698.17 1293.75 2699.14 1293.09 2700.26 1292.67L2700.26 1292.23C2699.14 1291.81 2698.17 1291.15 2697.36 1290.27 2696.54 1289.38 2696.14 1288.24 2696.14 1286.86 2696.14 1286.14 2696.3 1284.95 2696.62 1283.27 2696.95 1281.6 2697.11 1280.19 2697.11 1279.05 2697.11 1276.22 2696.44 1274.19 2695.11 1272.96 2693.78 1271.73 2691.93 1271.11 2689.57 1271.11L2689.2 1271.11Z" fill="#E69138" fill-rule="evenodd"/><text fill="#000000" fill-opacity="0" font-family="Arial,Arial_MSFontService,sans-serif" font-size="46.5576" x="2689.2" y="1310">}</text><text fill="#E69138" font-family="Cambria Math,Cambria Math_MSFontService,sans-serif" font-weight="400" font-size="50" transform="matrix(1 0 0 1 2547.9 1438)">{</text><text fill="#E69138" font-family="Cambria Math,Cambria Math_MSFontService,sans-serif" font-weight="400" font-size="50" transform="matrix(1 0 0 1 2567.37 1438)">ğ‘ </text><text fill="#E69138" font-family="Cambria Math,Cambria Math_MSFontService,sans-serif" font-weight="400" font-size="37" transform="matrix(1 0 0 1 2585.16 1448)">ğ‘—</text><text fill="#E69138" font-family="Cambria Math,Cambria Math_MSFontService,sans-serif" font-weight="400" font-size="50" transform="matrix(1 0 0 1 2605.69 1438)">}</text><text fill="#E06666" font-family="Cambria Math,Cambria Math_MSFontService,sans-serif" font-weight="400" font-size="50" transform="matrix(1 0 0 1 2542.06 1036)">{</text><text fill="#E06666" font-family="Cambria Math,Cambria Math_MSFontService,sans-serif" font-weight="400" font-size="50" transform="matrix(1 0 0 1 2561.53 1036)">âˆ†</text><text fill="#E06666" font-family="Cambria Math,Cambria Math_MSFontService,sans-serif" font-weight="400" font-size="50" transform="matrix(1 0 0 1 2591.33 1036)">ğ’‘</text><text fill="#E06666" font-family="Cambria Math,Cambria Math_MSFontService,sans-serif" font-weight="400" font-size="37" transform="matrix(1 0 0 1 2622.84 1047)">ğ‘—</text><text fill="#E06666" font-family="Cambria Math,Cambria Math_MSFontService,sans-serif" font-weight="400" font-size="50" transform="matrix(1 0 0 1 2643.37 1036)">}</text><text font-family="Cambria Math,Cambria Math_MSFontService,sans-serif" font-weight="400" font-size="50" transform="matrix(1 0 0 1 1176.18 1208)">ğ’ˆ</text></g></svg>